<svg id="Слой_1" data-name="Слой 1" xmlns="http://www.w3.org/2000/svg" viewBox="0 0 85.1 53.86"><defs><style>.cls-1{fill:#000002;}.cls-2{fill:#e23e27;}.cls-3{fill:#fff;}</style></defs><title>К</title><path class="cls-1" d="M62.29,33L58,38.41V53.8H47.12V-0.06H58V23.43l3.44-5.81,10-17.68H84.78L69.36,23.62,85,53.8H72.13Z" transform="translate(0.06 0.06)"/><rect class="cls-2" width="37.7" height="53.86"/><path class="cls-3" d="M29.52,35.55h0L26.9,9.37a1.36,1.36,0,0,0-2.72,0L24.8,30.23a2,2,0,0,1-4,0L20.18,9.37a1.36,1.36,0,0,0-2.72,0L16.68,30.23a2,2,0,0,1-4,0L13.45,9.37a1.36,1.36,0,0,0-2.72,0L8,35.54H8A7.44,7.44,0,0,0,14.8,43V53.8h8V43A7.44,7.44,0,0,0,29.52,35.55Z" transform="translate(0.06 0.06)"/></svg>