<svg id="Слой_1" data-name="Слой 1" xmlns="http://www.w3.org/2000/svg" viewBox="0 0 350.34 53.86"><defs><style>.cls-1{fill:#000002;}.cls-2{fill:#e23e27;}.cls-3{fill:none;stroke:#201600;stroke-miterlimit:10;stroke-width:0.25px;}.cls-4{fill:#fff;}</style></defs><title>Лого</title><path class="cls-1" d="M62.2,33.44L58,38.69v15H47.47V1.31H58V24.13l3.34-5.64L71.12,1.31H84.06l-15,23L84.31,53.64H71.77Z" transform="translate(0.03 -0.47)"/><path class="cls-1" d="M85.11,33.7q0-8.52,4-13.36t11.11-4.85q7.17,0,11.18,4.85t4,13.43v2.39q0,8.55-4,13.36T100.3,54.33q-7.2,0-11.2-4.83t-4-13.41V33.7h0Zm9.83,2.46q0,10,5.36,10,5,0,5.33-8.38l0-4.12q0-5.12-1.42-7.6a4.42,4.42,0,0,0-4-2.48,4.31,4.31,0,0,0-3.89,2.48q-1.4,2.48-1.4,7.6v2.46Z" transform="translate(0.03 -0.47)"/><path class="cls-1" d="M120.38,33.7q0-8.52,4-13.36T135.5,15.5q7.17,0,11.18,4.85t4,13.43v2.39q0,8.55-4,13.36t-11.14,4.81q-7.2,0-11.2-4.83t-4-13.41V33.7h0Zm9.83,2.46q0,10,5.36,10,5,0,5.33-8.38l0-4.12q0-5.12-1.42-7.6a4.42,4.42,0,0,0-4-2.48,4.31,4.31,0,0,0-3.89,2.48q-1.4,2.48-1.4,7.6v2.46Z" transform="translate(0.03 -0.47)"/><path class="cls-1" d="M167.07,53.64h-9.83V0.47h9.83V53.64Z" transform="translate(0.03 -0.47)"/><path class="cls-1" d="M174.65,6.5a5.06,5.06,0,0,1,1.45-3.74,5.9,5.9,0,0,1,7.75,0,5.06,5.06,0,0,1,1.45,3.74,5.17,5.17,0,0,1-1.44,3.74,5.84,5.84,0,0,1-7.79,0A5.17,5.17,0,0,1,174.65,6.5Zm10.28,47.14H175.1V16.19h9.83V53.64Z" transform="translate(0.03 -0.47)"/><path class="cls-1" d="M201.47,16.19l0.28,3.7a10.39,10.39,0,0,1,8.69-4.4q9.66,0,9.93,13.53V53.64h-9.83V29.76a8.6,8.6,0,0,0-1-4.62,3.71,3.71,0,0,0-3.34-1.44,4.58,4.58,0,0,0-4.15,2.73V53.64h-9.83V16.19h9.21Z" transform="translate(0.03 -0.47)"/><path class="cls-1" d="M245.19,53.64a13.68,13.68,0,0,1-.83-2.91,8.37,8.37,0,0,1-7.13,3.6,10.55,10.55,0,0,1-7.81-3.12,10.94,10.94,0,0,1-3.1-8.06q0-5.88,3.76-9.1t10.82-3.29h3v-3a5.64,5.64,0,0,0-.87-3.57,3.1,3.1,0,0,0-2.53-1q-3.67,0-3.67,4.29H227a10.84,10.84,0,0,1,3.89-8.57,14.5,14.5,0,0,1,9.85-3.38q6.16,0,9.54,3.2t3.37,9.16V45.47a18.45,18.45,0,0,0,1.38,7.58v0.59h-9.86Zm-5.78-7a5.47,5.47,0,0,0,2.77-.66,4.65,4.65,0,0,0,1.7-1.56V36.64h-2.35a5,5,0,0,0-3.93,1.59,6.12,6.12,0,0,0-1.44,4.26Q236.16,46.65,239.41,46.65Z" transform="translate(0.03 -0.47)"/><path class="cls-1" d="M279.25,25.64L276,25.36a5.35,5.35,0,0,0-5.43,3.53V53.64h-9.83V16.19H270l0.28,4q2.32-4.74,6.4-4.74a6.85,6.85,0,0,1,2.7.45Z" transform="translate(0.03 -0.47)"/><path class="cls-1" d="M279.08,48.66a5.16,5.16,0,0,1,1.58-3.88,5.65,5.65,0,0,1,4.1-1.52,5.78,5.78,0,0,1,4.08,1.51,5.06,5.06,0,0,1,1.63,3.89,5,5,0,0,1-1.64,3.89A5.88,5.88,0,0,1,284.75,54a5.76,5.76,0,0,1-4.07-1.49A5,5,0,0,1,279.08,48.66Z" transform="translate(0.03 -0.47)"/><path class="cls-2" d="M317.39,25.64l-3.25-.28a5.35,5.35,0,0,0-5.43,3.53V53.64h-9.83V16.19h9.24l0.28,4q2.32-4.74,6.4-4.74a6.85,6.85,0,0,1,2.7.45Z" transform="translate(0.03 -0.47)"/><path class="cls-2" d="M340.83,50.21a9.65,9.65,0,0,1-8.17,4.12q-5.16,0-7.82-3.55t-2.67-10.33V16.19H332V40.69q0.07,5.47,3.63,5.47a5.05,5.05,0,0,0,4.85-2.91V16.19h9.87V53.64H341.1Z" transform="translate(0.03 -0.47)"/><path class="cls-3" d="M33.31,32.49a0,0,0,0,1,0,0l0,0A0.07,0.07,0,0,1,33.31,32.49Z" transform="translate(0.03 -0.47)"/><path class="cls-3" d="M33.31,32.49a0,0,0,0,1,0,0l0,0A0.07,0.07,0,0,1,33.31,32.49Z" transform="translate(0.03 -0.47)"/><path class="cls-3" d="M33.31,32.49a0,0,0,0,1,0,0l0,0A0.07,0.07,0,0,1,33.31,32.49Z" transform="translate(0.03 -0.47)"/><rect class="cls-2" y="0.7" width="37.12" height="53.02"/><path class="cls-4" d="M29.09,36.23h0L26.51,10.45a1.34,1.34,0,1,0-2.68,0L24.45,31a2,2,0,0,1-3.94,0L19.9,10.45a1.34,1.34,0,1,0-2.68,0L16.44,31a2,2,0,0,1-3.94,0l0.77-20.54a1.34,1.34,0,1,0-2.68,0L7.94,36.22h0a7.32,7.32,0,0,0,6.66,7.29V54.19h7.84V43.51A7.32,7.32,0,0,0,29.09,36.23Z" transform="translate(0.03 -0.47)"/></svg>