<svg width="77" height="77" viewBox="0 0 77 77" fill="none" xmlns="http://www.w3.org/2000/svg">
<circle cx="38.3529" cy="38.3529" r="38.3529" fill="#F79A38"/>
<path d="M50.3146 43.7086C51.3208 42.7023 51.4646 41.2648 50.6021 39.8274C49.8833 38.6774 48.5896 38.1024 47.1521 38.3899C46.5771 38.5336 46.0021 38.8211 45.4271 39.2524C40.9709 42.2711 34.9335 42.1273 30.4772 39.1086C30.1897 38.9649 29.9022 38.8211 29.6147 38.6774C28.0335 37.9586 26.4523 38.2461 25.5898 39.6836C24.5836 41.1211 24.7273 42.7023 26.021 43.9961C26.3085 44.2836 26.596 44.4273 26.7398 44.7148L26.8835 44.8586C28.896 46.4398 31.3397 47.446 34.5022 47.8773L32.6335 49.746C31.0522 51.3273 29.3273 53.0522 27.746 54.6335C27.3148 55.0647 26.7398 55.7835 26.7398 56.7897C26.7398 58.0835 27.4585 59.3772 28.7523 59.9522C29.1835 60.2397 29.6147 60.2397 30.046 60.2397C30.7647 60.2397 31.6272 59.9522 32.2022 59.2334C34.3585 57.0772 36.0835 55.3522 37.8084 53.6272C37.9522 53.4835 37.9522 53.4835 37.9522 53.4835C37.9522 53.4835 38.0959 53.4835 38.0959 53.6272C39.2459 54.921 40.5397 56.071 41.6897 57.3647C42.2646 57.9397 42.8396 58.5147 43.4146 59.0897C44.1334 59.8084 44.7084 60.0959 45.5709 60.0959C46.8646 60.2397 48.3021 59.3772 48.8771 58.0834C49.4521 56.9334 49.1646 55.496 48.1583 54.6335C46.7209 53.196 45.2834 51.6147 43.7021 50.1773L41.2584 47.7335C42.5521 47.5898 43.9896 47.3023 45.2834 46.7273C47.4396 46.0086 49.0208 45.0023 50.3146 43.7086Z" fill="white"/>
<path d="M37.9522 39.6836C44.1334 39.6836 49.1646 34.7961 49.1646 28.6149C49.1646 25.5962 48.0146 22.7212 45.8584 20.565C43.7021 18.4088 40.9709 17.2588 38.0959 17.2588C31.9147 17.2588 27.0273 22.29 26.8835 28.3274C26.8835 31.3462 28.0335 34.0774 30.1898 36.2336C32.2022 38.5336 34.9335 39.6836 37.9522 39.6836ZM34.7897 25.3087C35.6522 24.4462 36.8022 24.015 37.9522 24.015C40.5397 24.015 42.4084 26.0275 42.4084 28.4712C42.4084 31.0587 40.3959 32.9274 37.9522 32.9274C35.3647 32.9274 33.496 30.9149 33.496 28.4712C33.496 27.3212 33.9272 26.1712 34.7897 25.3087Z" fill="white"/>
<path d="M50.3146 43.7086C51.3208 42.7023 51.4646 41.2648 50.6021 39.8274C49.8833 38.6774 48.5896 38.1024 47.1521 38.3899C46.5771 38.5336 46.0021 38.8211 45.4271 39.2524C40.9709 42.2711 34.9335 42.1273 30.4772 39.1086C30.1897 38.9649 29.9022 38.8211 29.6147 38.6774C28.0335 37.9586 26.4523 38.2461 25.5898 39.6836C24.5836 41.1211 24.7273 42.7023 26.021 43.9961C26.3085 44.2836 26.596 44.4273 26.7398 44.7148L26.8835 44.8586C28.896 46.4398 31.3397 47.446 34.5022 47.8773L32.6335 49.746C31.0522 51.3273 29.3273 53.0522 27.746 54.6335C27.3148 55.0647 26.7398 55.7835 26.7398 56.7897C26.7398 58.0835 27.4585 59.3772 28.7523 59.9522C29.1835 60.2397 29.6147 60.2397 30.046 60.2397C30.7647 60.2397 31.6272 59.9522 32.2022 59.2334C34.3585 57.0772 36.0835 55.3522 37.8084 53.6272C37.9522 53.4835 37.9522 53.4835 37.9522 53.4835C37.9522 53.4835 38.0959 53.4835 38.0959 53.6272C39.2459 54.921 40.5397 56.071 41.6897 57.3647C42.2646 57.9397 42.8396 58.5147 43.4146 59.0897C44.1334 59.8084 44.7084 60.0959 45.5709 60.0959C46.8646 60.2397 48.3021 59.3772 48.8771 58.0834C49.4521 56.9334 49.1646 55.496 48.1583 54.6335C46.7209 53.196 45.2834 51.6147 43.7021 50.1773L41.2584 47.7335C42.5521 47.5898 43.9896 47.3023 45.2834 46.7273C47.4396 46.0086 49.0208 45.0023 50.3146 43.7086Z" fill="white"/>
</svg>
