<svg width="77" height="77" viewBox="0 0 77 77" fill="none" xmlns="http://www.w3.org/2000/svg">
<circle cx="38.3529" cy="38.3529" r="38.3529" fill="#BE1326"/>
<path d="M49.8691 24.7662C47.421 22.3182 43.9019 21.0941 40.0768 21.0941C34.2627 21.0941 30.7436 23.5422 28.7545 25.5312C26.3065 27.9793 24.9294 31.1924 24.9294 34.5585C24.9294 38.6896 26.6125 41.7496 29.5196 42.9737C29.6726 43.1267 29.9786 43.1267 30.1316 43.1267C30.7436 43.1267 31.2026 42.6677 31.3556 42.0556C31.5086 41.7496 31.6616 40.8316 31.8146 40.3726C31.9676 39.6076 31.8146 39.3016 31.3556 38.6896C30.5906 37.7715 30.1316 36.5475 30.1316 35.0175C30.1316 30.5804 33.4977 25.8372 39.6178 25.8372C44.5139 25.8372 47.574 28.5913 47.574 33.0284C47.574 35.7825 46.962 38.3836 45.891 40.3726C45.126 41.7496 43.7489 43.2797 41.7599 43.2797C40.8418 43.2797 40.0768 42.9737 39.6178 42.2087C39.1588 41.5966 39.0058 40.8316 39.1588 40.0666C39.3118 39.1486 39.6178 38.2306 39.9238 37.3125C40.3828 35.6295 40.9948 33.9465 40.9948 32.7224C40.9948 30.5804 39.6178 29.0503 37.6287 29.0503C35.0277 29.0503 33.0386 31.6514 33.0386 34.8645C33.0386 36.5475 33.4977 37.6185 33.6507 38.0776C33.3447 39.4546 31.3556 47.5638 31.0496 48.9408C30.8966 49.8588 29.5195 56.897 31.6616 57.356C33.9567 57.968 36.0987 51.0829 36.2517 50.3179C36.4047 49.7058 37.0168 47.2578 37.3228 45.8807C38.3938 46.9518 40.2298 47.7168 42.0659 47.7168C45.432 47.7168 48.3391 46.1868 50.4811 43.4327C52.4702 40.8316 53.6941 37.1595 53.6941 33.0284C53.5411 30.2744 52.3171 27.0613 49.8691 24.7662Z" fill="white"/>
</svg>
