<svg width="21" height="21" viewBox="0 0 21 21" fill="none" xmlns="http://www.w3.org/2000/svg">
<path d="M13.5939 4.8076C11.1675 2.38119 7.23352 2.38119 4.80711 4.8076C2.3807 7.23401 2.3807 11.168 4.80711 13.5944C7.23352 16.0208 11.1675 16.0208 13.5939 13.5944C16.0203 11.168 16.0203 7.23401 13.5939 4.8076ZM3.3929 3.39338C6.60035 0.185929 11.8007 0.185929 15.0081 3.39338C17.9762 6.36148 18.1977 11.0361 15.6726 14.2589L19.7985 18.3848C20.189 18.7753 20.189 19.4085 19.7985 19.799C19.408 20.1895 18.7748 20.1895 18.3843 19.799L14.2584 15.6731C11.0356 18.1982 6.36099 17.9767 3.3929 15.0086C0.185441 11.8012 0.185441 6.60084 3.3929 3.39338Z" fill="white"/>
</svg>
