<svg width="77" height="77" viewBox="0 0 77 77" fill="none" xmlns="http://www.w3.org/2000/svg">
<circle cx="38.3529" cy="38.3529" r="38.3529" fill="#2F89CE"/>
<path d="M17.9313 39.0702L26.7488 42.3581L30.1862 53.4174C30.3356 54.1646 31.2323 54.3141 31.8301 53.8657L36.7619 49.8306C37.2102 49.3822 37.9575 49.3822 38.5553 49.8306L47.3728 56.2569C47.9706 56.7052 48.8673 56.4063 49.0167 55.6591L55.5925 24.2748C55.7419 23.5275 54.9947 22.7803 54.2475 23.0792L17.9313 37.1274C17.0346 37.4263 17.0346 38.7713 17.9313 39.0702ZM29.7378 40.7142L47.0739 30.1033C47.3728 29.9539 47.6717 30.4022 47.3728 30.5517L33.1751 43.8526C32.7268 44.301 32.2784 44.8988 32.2784 45.646L31.8301 49.2328C31.8301 49.6811 31.0828 49.8306 30.9334 49.2328L29.14 42.657C28.6916 41.9098 28.9906 41.0131 29.7378 40.7142Z" fill="white"/>
</svg>
