<svg width="77" height="77" viewBox="0 0 77 77" fill="none" xmlns="http://www.w3.org/2000/svg">
<circle cx="38.3529" cy="38.3529" r="38.3529" fill="#7294C7"/>
<path d="M57.1576 48.1622C57.1576 48.003 56.9984 48.003 56.9984 47.8438C56.3616 46.5701 54.9287 44.9781 53.0182 43.2268C52.0629 42.4307 51.5853 41.7939 51.2669 41.4755C50.7893 40.8386 50.7893 40.361 50.9485 39.7242C51.1077 39.2466 51.7445 38.4505 52.859 37.0176C53.4958 36.2216 53.8142 35.744 54.2918 35.2663C56.68 32.0822 57.7944 30.0124 57.476 29.0572L57.3168 28.898C57.1576 28.7388 56.9984 28.5796 56.68 28.5796C56.3615 28.4204 55.8839 28.4204 55.4063 28.5796H49.3564C49.1972 28.5796 49.1972 28.5796 48.8788 28.5796C48.7195 28.5796 48.5604 28.5796 48.5604 28.5796H48.4011H48.2419L48.0827 28.7388C47.9235 28.898 47.9235 28.898 47.9235 29.0572C47.2867 30.8085 46.4906 32.2414 45.6946 33.8334C45.217 34.6295 44.7393 35.4256 44.2617 36.0624C43.7841 36.6992 43.4656 37.1768 43.1472 37.4953C42.8288 37.8137 42.5104 37.9729 42.3512 38.2913C42.192 38.4505 41.8736 38.6097 41.8736 38.4505C41.7144 38.4505 41.5551 38.4505 41.5551 38.2913C41.3959 38.1321 41.2367 37.9729 41.0775 37.8137C40.9183 37.6545 40.9183 37.336 40.7591 37.0176C40.7591 36.6992 40.7591 36.3808 40.7591 36.2216C40.7591 36.0624 40.7591 35.5848 40.7591 35.2663C40.7591 34.7887 40.7591 34.4703 40.7591 34.3111C40.7591 33.8335 40.7591 33.1966 40.7591 32.5598C40.7591 31.923 40.7591 31.4453 40.7591 31.1269C40.7591 30.8085 40.7591 30.3309 40.7591 30.0125C40.7591 29.5348 40.7591 29.2164 40.7591 29.0572C40.7591 28.898 40.5999 28.5796 40.5999 28.4204C40.4407 28.2612 40.2815 28.1019 40.1223 27.9427C39.9631 27.7835 39.6447 27.7835 39.4854 27.6243C38.6894 27.4651 37.7342 27.3059 36.6197 27.3059C34.0724 27.3059 32.3211 27.4651 31.6842 27.7835C31.3658 27.9427 31.0474 28.1019 30.8882 28.4204C30.5698 28.7388 30.5698 28.898 30.729 28.898C31.525 29.0572 32.1619 29.3756 32.4803 29.8532L32.6395 30.1717C32.7987 30.3309 32.7987 30.6493 32.9579 31.1269C33.1171 31.6045 33.1171 32.0822 33.1171 32.719C33.1171 33.6742 33.1171 34.6295 33.1171 35.2663C33.1171 36.0624 32.9579 36.54 32.9579 37.0176C32.9579 37.4952 32.7987 37.8137 32.6395 37.9729C32.4803 38.2913 32.4803 38.4505 32.3211 38.4505C32.3211 38.4505 32.321 38.6097 32.1618 38.6097C32.0026 38.6097 31.8434 38.7689 31.525 38.7689C31.3658 38.7689 31.0474 38.6097 30.8882 38.4505C30.5698 38.2913 30.2514 37.9729 30.0921 37.6545C29.7737 37.3361 29.4553 36.8584 29.1369 36.2216C28.8185 35.5847 28.3408 34.9479 28.0224 33.9927L27.704 33.3558C27.5448 33.0374 27.2264 32.4006 26.908 31.6045C26.5896 30.8085 26.2711 30.1717 25.9527 29.3756C25.7935 29.0572 25.6343 28.898 25.4751 28.7388H25.3159C25.3159 28.7388 25.1567 28.5796 24.9975 28.5796C24.8382 28.5796 24.6791 28.4204 24.5198 28.4204H18.7883C18.1515 28.4204 17.8331 28.5796 17.6739 28.7388L17.5146 28.898C17.5146 28.898 17.5146 29.0572 17.5146 29.2164C17.5146 29.3756 17.5147 29.5348 17.6739 29.8532C18.4699 31.7637 19.4252 33.6743 20.3804 35.5848C21.3357 37.336 22.2909 38.9281 22.9278 40.0426C23.7238 41.1571 24.3606 42.2715 25.1567 43.2268C25.9527 44.182 26.4303 44.8189 26.5895 45.1373C26.908 45.4557 27.0672 45.6149 27.2264 45.7741L27.704 46.2517C28.0224 46.5701 28.5001 47.0478 29.1369 47.5254C29.7737 48.003 30.5698 48.4806 31.3658 48.9583C32.1618 49.4359 33.1171 49.7543 34.0724 50.0728C35.1868 50.3912 36.1421 50.5504 37.0973 50.3912H39.4854C39.9631 50.3912 40.2815 50.232 40.5999 49.9135L40.7591 49.7543C40.7591 49.5951 40.9183 49.5951 40.9183 49.4359C40.9183 49.2767 40.9183 49.1175 40.9183 48.7991C40.9183 48.1622 40.9183 47.6846 41.0775 47.207C41.2367 46.7294 41.2368 46.411 41.396 46.0925C41.5552 45.7741 41.7144 45.6149 41.8736 45.4557C42.0328 45.2965 42.192 45.1373 42.192 45.1373H42.3512C42.6696 44.9781 43.1472 45.1373 43.4657 45.4557C43.9433 45.7741 44.4209 46.2517 44.7393 46.7294C45.0577 47.207 45.5354 47.6846 46.1722 48.3214C46.8091 48.9583 47.2867 49.4359 47.6051 49.5951L48.0827 49.9135C48.4011 50.0727 48.7196 50.232 49.1972 50.3912C49.6748 50.5504 49.9932 50.5504 50.3116 50.5504L55.7248 50.3912C56.2024 50.3912 56.68 50.232 56.9984 50.0728C57.3168 49.9135 57.476 49.7543 57.476 49.4359C57.476 49.2767 57.476 48.9583 57.476 48.7991C57.1576 48.4807 57.1576 48.3214 57.1576 48.1622Z" fill="white"/>
</svg>
